<svg width="235" height="96" viewBox="0 0 235 96" fill="none" xmlns="http://www.w3.org/2000/svg">
<path d="M0.843164 1.05C1.50983 1.08333 2.30983 1.11666 3.24316 1.15C4.20983 1.18333 5.14316 1.2 6.04316 1.2C6.84316 1.2 7.64316 1.2 8.44316 1.2C9.24316 1.16666 10.0432 1.15 10.8432 1.15C11.6432 1.11666 12.4265 1.1 13.1932 1.1C15.1265 1.1 16.8932 1.3 18.4932 1.7C20.0932 2.1 21.3765 2.83333 22.3432 3.9C23.3432 4.93333 23.8432 6.43333 23.8432 8.4C23.8432 10.5333 23.1932 12.3667 21.8932 13.9C20.5932 15.4 18.8265 16.3167 16.5932 16.65C18.3598 16.75 19.9765 17.0833 21.4432 17.65C22.9432 18.1833 24.1432 19.05 25.0432 20.25C25.9432 21.45 26.3932 23.0833 26.3932 25.15C26.3932 26.95 25.9765 28.6 25.1432 30.1C24.3432 31.6 23.0598 32.8 21.2932 33.7C19.5265 34.5667 17.2265 35 14.3932 35C13.4598 35 12.3432 35 11.0432 35C9.7765 35 8.4765 35 7.14316 35C5.80983 35.0333 4.5765 35.05 3.44316 35.05C2.30983 35.0833 1.4265 35.1167 0.793164 35.15C0.793164 34.6833 0.809831 34.2833 0.843164 33.95C0.876498 33.5833 0.943164 33.2667 1.04316 33C1.94316 32.9333 2.64316 32.7667 3.14316 32.5C3.64316 32.2333 3.99316 31.7667 4.19316 31.1C4.4265 30.4 4.54316 29.4 4.54316 28.1V7.55C4.54316 6.41667 4.44316 5.55 4.24316 4.95C4.04316 4.35 3.69316 3.91667 3.19316 3.65C2.69316 3.38333 1.99316 3.23333 1.09316 3.2C0.993164 2.93333 0.926498 2.61666 0.893164 2.25C0.859831 1.85 0.843164 1.45 0.843164 1.05ZM9.24316 2.95V28.1C9.24316 29.4667 9.35983 30.5 9.59316 31.2C9.85983 31.8667 10.3265 32.3167 10.9932 32.55C11.6932 32.75 12.6598 32.85 13.8932 32.85C16.3598 32.85 18.1598 32.2333 19.2932 31C20.4598 29.7333 21.0432 28.0167 21.0432 25.85C21.0432 24.2833 20.7265 23.0167 20.0932 22.05C19.4598 21.05 18.6098 20.3 17.5432 19.8C16.5098 19.2667 15.3598 18.9 14.0932 18.7C12.8598 18.5 11.6265 18.4 10.3932 18.4H8.64316V16.25H10.7932C12.9598 16.25 14.6098 15.95 15.7432 15.35C16.8765 14.75 17.6598 13.9667 18.0932 13C18.5265 12 18.7432 10.9667 18.7432 9.9C18.7432 8.16667 18.3432 6.83333 17.5432 5.9C16.7765 4.93333 15.8098 4.26667 14.6432 3.9C13.5098 3.5 12.3932 3.3 11.2932 3.3C10.8598 3.3 10.4265 3.33333 9.99316 3.4C9.59316 3.43333 9.10983 3.53333 8.54316 3.7L9.24316 2.95ZM57.6455 21.55C57.6455 24.4167 57.4622 26.6833 57.0955 28.35C56.7288 30.0167 55.9622 31.4333 54.7955 32.6C53.8622 33.5333 52.6955 34.25 51.2955 34.75C49.9288 35.2167 48.3955 35.45 46.6955 35.45C43.5955 35.45 41.1455 35 39.3455 34.1C37.5788 33.1667 36.3122 31.8 35.5455 30C34.8122 28.2 34.4455 26.0167 34.4455 23.45V7.55C34.4455 6.35 34.3622 5.46666 34.1955 4.9C34.0622 4.3 33.7788 3.9 33.3455 3.7C32.9455 3.46667 32.3288 3.3 31.4955 3.2C31.3955 2.83333 31.3288 2.46667 31.2955 2.1C31.2622 1.73333 31.2455 1.38333 31.2455 1.05C31.9122 1.08333 32.7788 1.11666 33.8455 1.15C34.9455 1.18333 36.0122 1.2 37.0455 1.2C37.5455 1.2 38.0622 1.2 38.5955 1.2C39.1288 1.2 39.6455 1.2 40.1455 1.2C40.6455 1.16666 41.1288 1.15 41.5955 1.15C42.0622 1.11666 42.4788 1.08333 42.8455 1.05C42.8455 1.38333 42.8288 1.73333 42.7955 2.1C42.7622 2.46667 42.6955 2.83333 42.5955 3.2C41.6288 3.26667 40.8955 3.41667 40.3955 3.65C39.8955 3.85 39.5622 4.25 39.3955 4.85C39.2288 5.41667 39.1455 6.31667 39.1455 7.55V22.75C39.1455 24.6167 39.3955 26.3167 39.8955 27.85C40.3955 29.3833 41.2622 30.6 42.4955 31.5C43.7288 32.3667 45.4455 32.8 47.6455 32.8C48.4788 32.8 49.3955 32.6667 50.3955 32.4C51.3955 32.1 52.2455 31.6 52.9455 30.9C53.4788 30.3667 53.8955 29.75 54.1955 29.05C54.4955 28.35 54.7122 27.4333 54.8455 26.3C55.0122 25.1667 55.0955 23.7167 55.0955 21.95V9.55C55.0955 7.95 55.0122 6.71667 54.8455 5.85C54.6788 4.95 54.3455 4.3 53.8455 3.9C53.3788 3.5 52.6455 3.26667 51.6455 3.2C51.5455 2.7 51.4788 2.3 51.4455 2C51.4122 1.7 51.3955 1.38333 51.3955 1.05C51.7955 1.08333 52.2622 1.11666 52.7955 1.15C53.3288 1.15 53.8788 1.16666 54.4455 1.2C55.0455 1.2 55.5955 1.2 56.0955 1.2C56.8622 1.2 57.6788 1.18333 58.5455 1.15C59.4455 1.11666 60.2122 1.08333 60.8455 1.05C60.8455 1.28333 60.8288 1.56666 60.7955 1.9C60.7622 2.2 60.6955 2.63333 60.5955 3.2C59.8288 3.26667 59.2288 3.5 58.7955 3.9C58.3622 4.26667 58.0622 4.9 57.8955 5.8C57.7288 6.66666 57.6455 7.91667 57.6455 9.55V21.55ZM78.9357 32.75C80.8024 32.75 82.2691 32.55 83.3357 32.15C84.4024 31.75 85.2524 31.0833 85.8857 30.15C86.5524 29.2167 87.1524 27.9833 87.6857 26.45C88.1857 26.5833 88.6024 26.75 88.9357 26.95C89.2691 27.1167 89.5857 27.35 89.8857 27.65C89.5191 28.7833 89.2024 30.0167 88.9357 31.35C88.7024 32.6833 88.5024 33.9333 88.3357 35.1C87.7024 35.0667 86.8524 35.05 85.7857 35.05C84.7524 35.05 83.6024 35.0333 82.3357 35C81.1024 35 79.8691 35 78.6357 35C77.7024 35 76.6191 35 75.3857 35C74.1857 35 72.9524 35 71.6857 35C70.4524 35.0333 69.3024 35.05 68.2357 35.05C67.1691 35.0833 66.3191 35.1167 65.6857 35.15C65.6857 34.6833 65.7024 34.2833 65.7357 33.95C65.7691 33.5833 65.8357 33.2667 65.9357 33C66.8357 32.9333 67.5357 32.7667 68.0357 32.5C68.5357 32.2333 68.8857 31.7667 69.0857 31.1C69.3191 30.4 69.4357 29.4 69.4357 28.1V7.55C69.4357 6.41667 69.3357 5.55 69.1357 4.95C68.9357 4.35 68.5857 3.91667 68.0857 3.65C67.5857 3.38333 66.8857 3.23333 65.9857 3.2C65.8857 2.93333 65.8191 2.61666 65.7857 2.25C65.7524 1.85 65.7357 1.45 65.7357 1.05C66.4024 1.08333 67.1024 1.11666 67.8357 1.15C68.6024 1.15 69.3357 1.16666 70.0357 1.2C70.7357 1.2 71.3191 1.2 71.7857 1.2C72.5191 1.2 73.2191 1.2 73.8857 1.2C74.5524 1.16666 75.2024 1.15 75.8357 1.15C76.5024 1.11666 77.1691 1.08333 77.8357 1.05C77.8357 1.48333 77.8191 1.88333 77.7857 2.25C77.7524 2.61666 77.6857 2.93333 77.5857 3.2C76.7191 3.23333 76.0191 3.38333 75.4857 3.65C74.9857 3.91667 74.6357 4.36667 74.4357 5C74.2357 5.63333 74.1357 6.53333 74.1357 7.7V28.1C74.1357 29.3333 74.2524 30.2833 74.4857 30.95C74.7191 31.6167 75.1524 32.0833 75.7857 32.35C76.4524 32.6167 77.4024 32.75 78.6357 32.75H78.9357ZM106.914 32.75C108.781 32.75 110.248 32.55 111.314 32.15C112.381 31.75 113.231 31.0833 113.864 30.15C114.531 29.2167 115.131 27.9833 115.664 26.45C116.164 26.5833 116.581 26.75 116.914 26.95C117.248 27.1167 117.564 27.35 117.864 27.65C117.498 28.7833 117.181 30.0167 116.914 31.35C116.681 32.6833 116.481 33.9333 116.314 35.1C115.681 35.0667 114.831 35.05 113.764 35.05C112.731 35.05 111.581 35.0333 110.314 35C109.081 35 107.848 35 106.614 35C105.681 35 104.598 35 103.364 35C102.164 35 100.931 35 99.6643 35C98.4309 35.0333 97.2809 35.05 96.2143 35.05C95.1476 35.0833 94.2976 35.1167 93.6643 35.15C93.6643 34.6833 93.6809 34.2833 93.7143 33.95C93.7476 33.5833 93.8143 33.2667 93.9143 33C94.8143 32.9333 95.5143 32.7667 96.0143 32.5C96.5143 32.2333 96.8643 31.7667 97.0643 31.1C97.2976 30.4 97.4143 29.4 97.4143 28.1V7.55C97.4143 6.41667 97.3143 5.55 97.1143 4.95C96.9143 4.35 96.5643 3.91667 96.0643 3.65C95.5643 3.38333 94.8643 3.23333 93.9643 3.2C93.8643 2.93333 93.7976 2.61666 93.7643 2.25C93.7309 1.85 93.7143 1.45 93.7143 1.05C94.3809 1.08333 95.0809 1.11666 95.8143 1.15C96.5809 1.15 97.3143 1.16666 98.0143 1.2C98.7143 1.2 99.2976 1.2 99.7643 1.2C100.498 1.2 101.198 1.2 101.864 1.2C102.531 1.16666 103.181 1.15 103.814 1.15C104.481 1.11666 105.148 1.08333 105.814 1.05C105.814 1.48333 105.798 1.88333 105.764 2.25C105.731 2.61666 105.664 2.93333 105.564 3.2C104.698 3.23333 103.998 3.38333 103.464 3.65C102.964 3.91667 102.614 4.36667 102.414 5C102.214 5.63333 102.114 6.53333 102.114 7.7V28.1C102.114 29.3333 102.231 30.2833 102.464 30.95C102.698 31.6167 103.131 32.0833 103.764 32.35C104.431 32.6167 105.381 32.75 106.614 32.75H106.914ZM132.393 35.45C130.326 35.45 128.509 35.1667 126.943 34.6C125.409 34 123.843 33.2167 122.243 32.25C122.443 30.9833 122.559 29.7167 122.593 28.45C122.659 27.1833 122.693 26.0833 122.693 25.15C123.059 25.05 123.493 24.9833 123.993 24.95C124.493 24.8833 124.959 24.85 125.393 24.85C125.493 26.55 125.793 28.0167 126.293 29.25C126.826 30.45 127.643 31.3833 128.743 32.05C129.876 32.7167 131.326 33.05 133.093 33.05C135.393 33.05 137.026 32.55 137.993 31.55C138.993 30.5167 139.493 29.2833 139.493 27.85C139.493 26.3833 139.093 25.1833 138.293 24.25C137.493 23.2833 136.459 22.4667 135.193 21.8C133.926 21.1333 132.576 20.4833 131.143 19.85C129.743 19.2167 128.409 18.4833 127.143 17.65C125.876 16.8167 124.843 15.7833 124.043 14.55C123.243 13.2833 122.843 11.6833 122.843 9.75C122.843 7.88333 123.243 6.28333 124.043 4.95C124.876 3.58333 126.043 2.55 127.543 1.85C129.043 1.11666 130.826 0.749997 132.893 0.749997C134.059 0.749997 135.159 0.849998 136.193 1.05C137.259 1.25 138.226 1.51666 139.093 1.85C139.959 2.18333 140.676 2.55 141.243 2.95C141.243 3.91666 141.259 5.03333 141.293 6.3C141.326 7.56667 141.409 8.65 141.543 9.55C141.176 9.68333 140.726 9.8 140.193 9.9C139.693 9.96667 139.209 10 138.743 10C138.409 8.06667 137.976 6.6 137.443 5.6C136.909 4.6 136.259 3.91667 135.493 3.55C134.726 3.15 133.843 2.95 132.843 2.95C131.076 2.95 129.693 3.38333 128.693 4.25C127.693 5.11666 127.193 6.33333 127.193 7.9C127.193 9.36666 127.593 10.5833 128.393 11.55C129.193 12.5167 130.226 13.35 131.493 14.05C132.759 14.75 134.093 15.4333 135.493 16.1C136.893 16.7333 138.226 17.4667 139.493 18.3C140.759 19.1 141.793 20.1 142.593 21.3C143.393 22.5 143.793 24.0167 143.793 25.85C143.793 27.5167 143.393 29.0833 142.593 30.55C141.793 32.0167 140.559 33.2 138.893 34.1C137.226 35 135.059 35.45 132.393 35.45ZM149.231 1.05C149.731 1.08333 150.347 1.11666 151.081 1.15C151.847 1.15 152.647 1.16666 153.481 1.2C154.314 1.2 155.097 1.2 155.831 1.2C156.597 1.2 157.197 1.2 157.631 1.2V28.1C157.631 29.3333 157.747 30.2833 157.981 30.95C158.214 31.6167 158.664 32.0833 159.331 32.35C159.997 32.6167 160.947 32.75 162.181 32.75V35C161.247 35 160.164 35 158.931 35C157.731 35 156.497 35 155.231 35C153.997 35.0333 152.847 35.05 151.781 35.05C150.714 35.0833 149.864 35.1167 149.231 35.15C149.231 34.6833 149.247 34.2833 149.281 33.95C149.314 33.5833 149.381 33.2667 149.481 33C150.381 32.9333 151.081 32.7667 151.581 32.5C152.081 32.2333 152.431 31.7667 152.631 31.1C152.831 30.4 152.931 29.4 152.931 28.1V7.55C152.931 6.41667 152.831 5.55 152.631 4.95C152.431 4.35 152.081 3.91667 151.581 3.65C151.081 3.38333 150.381 3.23333 149.481 3.2C149.381 2.93333 149.314 2.61666 149.281 2.25C149.247 1.85 149.231 1.45 149.231 1.05ZM172.231 26.45C172.731 26.5833 173.147 26.75 173.481 26.95C173.814 27.1167 174.131 27.35 174.431 27.65C174.064 28.7833 173.747 30.0167 173.481 31.35C173.247 32.6833 173.047 33.9333 172.881 35.1C172.247 35.0667 171.381 35.05 170.281 35.05C169.214 35.05 167.981 35.0333 166.581 35C165.214 35 163.747 35 162.181 35V32.75H162.481C164.881 32.75 166.681 32.5167 167.881 32.05C169.114 31.55 170.031 30.8333 170.631 29.9C171.231 28.9667 171.764 27.8167 172.231 26.45ZM168.731 12.5C168.697 13.3333 168.664 14.2333 168.631 15.2C168.631 16.1667 168.631 17.0833 168.631 17.95C168.631 18.8167 168.631 19.7833 168.631 20.85C168.664 21.9167 168.697 22.8833 168.731 23.75C168.297 23.75 167.897 23.7333 167.531 23.7C167.164 23.6667 166.797 23.6 166.431 23.5C166.297 21.7667 165.831 20.6 165.031 20C164.264 19.3667 162.847 19.05 160.781 19.05H157.181V16.9H160.781C162.847 16.9 164.281 16.6333 165.081 16.1C165.881 15.5667 166.297 14.4833 166.331 12.85C166.764 12.7167 167.164 12.6333 167.531 12.6C167.897 12.5333 168.297 12.5 168.731 12.5ZM171.681 1.05C171.747 1.78333 171.831 2.63333 171.931 3.6C172.031 4.56667 172.147 5.51666 172.281 6.45C172.414 7.38333 172.564 8.21666 172.731 8.95C172.464 9.18333 172.131 9.35 171.731 9.45C171.364 9.51667 170.947 9.55 170.481 9.55C170.414 8.51667 170.147 7.51667 169.681 6.55C169.214 5.58333 168.397 4.78333 167.231 4.15C166.097 3.51666 164.447 3.2 162.281 3.2H156.581L157.631 1.2C160.264 1.2 162.514 1.2 164.381 1.2C166.281 1.16666 167.831 1.13333 169.031 1.1C170.264 1.06667 171.147 1.05 171.681 1.05ZM193.733 21.8V26.85C193.733 28.6167 193.817 29.9167 193.983 30.75C194.15 31.55 194.5 32.0833 195.033 32.35C195.6 32.6167 196.45 32.8333 197.583 33C197.683 33.3 197.75 33.6333 197.783 34C197.85 34.3667 197.883 34.75 197.883 35.15C196.783 35.1167 195.683 35.0833 194.583 35.05C193.483 35.0167 192.467 35 191.533 35C190.8 35 189.983 35 189.083 35C188.217 35.0333 187.383 35.05 186.583 35.05C185.817 35.05 185.2 35.0667 184.733 35.1C184.733 34.7333 184.75 34.3667 184.783 34C184.85 33.6333 184.933 33.3 185.033 33C186.233 32.9 187.117 32.7333 187.683 32.5C188.25 32.2333 188.617 31.7333 188.783 31C188.95 30.2333 189.033 29.0667 189.033 27.5V21.8H193.733ZM193.333 22.8H189.433L180.733 6.1C180.2 5.06667 179.683 4.33333 179.183 3.9C178.683 3.43333 177.967 3.18333 177.033 3.15C176.9 2.78333 176.817 2.43333 176.783 2.1C176.75 1.76666 176.733 1.43333 176.733 1.1C177.2 1.1 177.717 1.11666 178.283 1.15C178.85 1.15 179.433 1.16666 180.033 1.2C180.667 1.2 181.3 1.2 181.933 1.2C182.567 1.2 183.3 1.2 184.133 1.2C185 1.2 185.833 1.2 186.633 1.2C187.467 1.16666 188.133 1.13333 188.633 1.1C188.633 1.46666 188.617 1.8 188.583 2.1C188.55 2.36666 188.483 2.68333 188.383 3.05C187.083 3.18333 186.333 3.55 186.133 4.15C185.967 4.71667 186.25 5.71667 186.983 7.15C187.883 8.88333 188.85 10.8333 189.883 13C190.95 15.1667 192 17.4167 193.033 19.75H192.633C193.7 17.3833 194.7 15.2 195.633 13.2C196.6 11.2 197.467 9.43333 198.233 7.9C199.133 6.13333 199.467 4.95 199.233 4.35C199 3.75 198.217 3.35 196.883 3.15C196.783 2.78333 196.7 2.45 196.633 2.15C196.567 1.81666 196.533 1.46666 196.533 1.1C197.133 1.13333 197.917 1.16666 198.883 1.2C199.85 1.2 200.7 1.2 201.433 1.2C202.2 1.2 202.967 1.2 203.733 1.2C204.5 1.16666 205.167 1.13333 205.733 1.1C205.733 1.43333 205.717 1.75 205.683 2.05C205.65 2.35 205.6 2.68333 205.533 3.05C204.633 3.28333 203.783 3.81666 202.983 4.65C202.183 5.48333 201.35 6.75 200.483 8.45L193.333 22.8ZM209.778 1.05C210.278 1.08333 210.894 1.11666 211.628 1.15C212.394 1.15 213.194 1.16666 214.028 1.2C214.861 1.2 215.644 1.2 216.378 1.2C217.144 1.2 217.744 1.2 218.178 1.2V28.1C218.178 29.3333 218.294 30.2833 218.528 30.95C218.761 31.6167 219.211 32.0833 219.878 32.35C220.544 32.6167 221.494 32.75 222.728 32.75V35C221.794 35 220.711 35 219.478 35C218.278 35 217.044 35 215.778 35C214.544 35.0333 213.394 35.05 212.328 35.05C211.261 35.0833 210.411 35.1167 209.778 35.15C209.778 34.6833 209.794 34.2833 209.828 33.95C209.861 33.5833 209.928 33.2667 210.028 33C210.928 32.9333 211.628 32.7667 212.128 32.5C212.628 32.2333 212.978 31.7667 213.178 31.1C213.378 30.4 213.478 29.4 213.478 28.1V7.55C213.478 6.41667 213.378 5.55 213.178 4.95C212.978 4.35 212.628 3.91667 212.128 3.65C211.628 3.38333 210.928 3.23333 210.028 3.2C209.928 2.93333 209.861 2.61666 209.828 2.25C209.794 1.85 209.778 1.45 209.778 1.05ZM232.778 26.45C233.278 26.5833 233.694 26.75 234.028 26.95C234.361 27.1167 234.678 27.35 234.978 27.65C234.611 28.7833 234.294 30.0167 234.028 31.35C233.794 32.6833 233.594 33.9333 233.428 35.1C232.794 35.0667 231.928 35.05 230.828 35.05C229.761 35.05 228.528 35.0333 227.128 35C225.761 35 224.294 35 222.728 35V32.75H223.028C225.428 32.75 227.228 32.5167 228.428 32.05C229.661 31.55 230.578 30.8333 231.178 29.9C231.778 28.9667 232.311 27.8167 232.778 26.45ZM229.278 12.5C229.244 13.3333 229.211 14.2333 229.178 15.2C229.178 16.1667 229.178 17.0833 229.178 17.95C229.178 18.8167 229.178 19.7833 229.178 20.85C229.211 21.9167 229.244 22.8833 229.278 23.75C228.844 23.75 228.444 23.7333 228.078 23.7C227.711 23.6667 227.344 23.6 226.978 23.5C226.844 21.7667 226.378 20.6 225.578 20C224.811 19.3667 223.394 19.05 221.328 19.05H217.728V16.9H221.328C223.394 16.9 224.828 16.6333 225.628 16.1C226.428 15.5667 226.844 14.4833 226.878 12.85C227.311 12.7167 227.711 12.6333 228.078 12.6C228.444 12.5333 228.844 12.5 229.278 12.5ZM232.228 1.05C232.294 1.78333 232.378 2.63333 232.478 3.6C232.578 4.56667 232.694 5.51666 232.828 6.45C232.961 7.38333 233.111 8.21666 233.278 8.95C233.011 9.18333 232.678 9.35 232.278 9.45C231.911 9.51667 231.494 9.55 231.028 9.55C230.961 8.51667 230.694 7.51667 230.228 6.55C229.761 5.58333 228.944 4.78333 227.778 4.15C226.644 3.51666 224.994 3.2 222.828 3.2H217.128L218.178 1.2C220.811 1.2 223.061 1.2 224.928 1.2C226.828 1.16666 228.378 1.13333 229.578 1.1C230.811 1.06667 231.694 1.05 232.228 1.05ZM9.7043 95.15C9.7043 94.6833 9.72096 94.2833 9.7543 93.95C9.78763 93.5833 9.8543 93.2667 9.9543 93C10.8543 92.9333 11.5543 92.7833 12.0543 92.55C12.5543 92.2833 12.9043 91.85 13.1043 91.25C13.3043 90.6167 13.4043 89.75 13.4043 88.65V67.55C13.4043 66.4167 13.3043 65.55 13.1043 64.95C12.9043 64.35 12.5543 63.9167 12.0543 63.65C11.5543 63.3833 10.8543 63.2333 9.9543 63.2C9.8543 62.9333 9.78763 62.6167 9.7543 62.25C9.72096 61.8833 9.7043 61.4833 9.7043 61.05C11.0043 61.1167 12.2543 61.1667 13.4543 61.2C14.6876 61.2 15.7043 61.2 16.5043 61.2C16.971 61.2 17.621 61.2 18.4543 61.2C19.321 61.1667 20.171 61.15 21.0043 61.15C21.8376 61.1167 22.4543 61.1 22.8543 61.1C25.621 61.1 27.8376 61.55 29.5043 62.45C31.171 63.35 32.371 64.5333 33.1043 66C33.8376 67.4667 34.2043 69.0667 34.2043 70.8C34.2043 72.7 33.771 74.5333 32.9043 76.3C32.071 78.0667 30.821 79.5167 29.1543 80.65C27.4876 81.7833 25.3876 82.35 22.8543 82.35C21.4543 82.35 20.2876 82.1667 19.3543 81.8C19.2876 81.4333 19.2543 81.0833 19.2543 80.75C19.2543 80.4167 19.3043 80.0833 19.4043 79.75C19.8376 79.85 20.271 79.9333 20.7043 80C21.1376 80.0333 21.5876 80.05 22.0543 80.05C23.2876 80.05 24.4376 79.8333 25.5043 79.4C26.571 78.9667 27.4376 78.2 28.1043 77.1C28.771 75.9667 29.1043 74.35 29.1043 72.25C29.1043 69.5833 28.4376 67.4333 27.1043 65.8C25.8043 64.1333 23.6543 63.3 20.6543 63.3C20.2876 63.3 19.8543 63.3333 19.3543 63.4C18.8876 63.4333 18.221 63.55 17.3543 63.75L18.1043 63V87.65C18.1043 89.0833 18.2543 90.1833 18.5543 90.95C18.8543 91.6833 19.3376 92.2 20.0043 92.5C20.671 92.7667 21.521 92.9333 22.5543 93C22.6543 93.2667 22.721 93.5833 22.7543 93.95C22.7876 94.2833 22.8043 94.6833 22.8043 95.15C22.3043 95.1167 21.7043 95.0833 21.0043 95.05C20.3376 95.05 19.621 95.0333 18.8543 95C18.0876 95 17.3043 95 16.5043 95C15.7376 95 14.9043 95 14.0043 95C13.1043 95.0333 12.271 95.05 11.5043 95.05C10.7376 95.0833 10.1376 95.1167 9.7043 95.15ZM51.3668 60.9L63.2668 88.2C63.8335 89.4333 64.3001 90.3833 64.6668 91.05C65.0335 91.7167 65.4001 92.1833 65.7668 92.45C66.1668 92.7167 66.6168 92.9 67.1168 93C67.2501 93.4333 67.3335 93.8 67.3668 94.1C67.4001 94.4 67.4168 94.75 67.4168 95.15C67.0835 95.1167 66.5668 95.0833 65.8668 95.05C65.1668 95.05 64.4335 95.0333 63.6668 95C62.9001 95 62.2501 95 61.7168 95C61.3168 95 60.8501 95 60.3168 95C59.7835 95.0333 59.2335 95.05 58.6668 95.05C58.1001 95.0833 57.5835 95.1 57.1168 95.1C56.6835 95.1333 56.3335 95.15 56.0668 95.15C56.0668 94.75 56.0835 94.3667 56.1168 94C56.1835 93.6333 56.2835 93.3 56.4168 93C57.7835 92.8333 58.5835 92.5333 58.8168 92.1C59.0835 91.6333 58.8835 90.6333 58.2168 89.1L51.2668 72.85C50.8335 71.8167 50.4501 70.9 50.1168 70.1C49.7835 69.3 49.3835 68.2833 48.9168 67.05H49.1668C48.7668 68.3167 48.4001 69.4 48.0668 70.3C47.7668 71.1667 47.4668 72 47.1668 72.8L41.4668 87.65C40.7335 89.6167 40.5001 90.9833 40.7668 91.75C41.0668 92.4833 41.9001 92.9 43.2668 93C43.4001 93.3 43.4835 93.6333 43.5168 94C43.5835 94.3667 43.6168 94.75 43.6168 95.15C43.2501 95.1167 42.8001 95.0833 42.2668 95.05C41.7335 95.05 41.1668 95.0333 40.5668 95C40.0001 95 39.4335 95 38.8668 95C38.0335 95 37.2501 95.0167 36.5168 95.05C35.7835 95.0833 35.1835 95.1167 34.7168 95.15C34.7168 94.8167 34.7335 94.4667 34.7668 94.1C34.8335 93.7 34.9335 93.35 35.0668 93.05C35.6668 92.9167 36.1668 92.6833 36.5668 92.35C36.9668 92.0167 37.3501 91.4833 37.7168 90.75C38.1168 89.9833 38.5668 88.95 39.0668 87.65L49.4168 61.1C49.7501 61.0333 50.0501 60.9833 50.3168 60.95C50.6168 60.9167 50.9668 60.9 51.3668 60.9ZM55.9168 81.75L56.3668 84C54.1335 84 51.7335 84.0167 49.1668 84.05C46.6335 84.0833 44.3335 84.1333 42.2668 84.2L43.0668 81.75H55.9168ZM93.5219 95.45C92.8552 94.35 92.3052 93.4333 91.8719 92.7C91.4385 91.9333 91.0552 91.2333 90.7219 90.6C90.3885 89.9333 90.0052 89.2167 89.5719 88.45C88.9385 87.25 88.3219 86.1667 87.7219 85.2C87.1219 84.2333 86.4219 83.25 85.6219 82.25C84.8552 81.25 83.8885 80.15 82.7219 78.95L84.0219 79.6C83.1552 79.6333 82.3552 79.65 81.6219 79.65C80.8885 79.65 80.1885 79.6333 79.5219 79.6V77.25C79.9885 77.3167 80.4219 77.3667 80.8219 77.4C81.2219 77.4333 81.6385 77.45 82.0719 77.45C83.9052 77.45 85.5552 77.2 87.0219 76.7C88.4885 76.1667 89.6552 75.35 90.5219 74.25C91.3885 73.15 91.8219 71.7333 91.8219 70C91.8219 68.0333 91.1885 66.4333 89.9219 65.2C88.6885 63.9333 86.5719 63.3 83.5719 63.3C82.8052 63.3 82.1219 63.3333 81.5219 63.4C80.9219 63.4667 80.2885 63.5833 79.6219 63.75L79.8719 63.2V88.65C79.8719 89.75 79.9719 90.6167 80.1719 91.25C80.3719 91.85 80.7052 92.2833 81.1719 92.55C81.6719 92.7833 82.3385 92.9333 83.1719 93C83.2719 93.3 83.3385 93.65 83.3719 94.05C83.4052 94.4167 83.4219 94.7833 83.4219 95.15C82.7219 95.0833 81.9885 95.0333 81.2219 95C80.4552 95 79.7385 95 79.0719 95C78.4385 95 77.9052 95 77.4719 95C76.6052 95 75.5719 95 74.3719 95C73.2052 95.0333 72.2385 95.0833 71.4719 95.15C71.4719 94.7833 71.4885 94.4167 71.5219 94.05C71.5552 93.6833 71.6219 93.3333 71.7219 93C72.6219 92.9333 73.3219 92.7833 73.8219 92.55C74.3219 92.2833 74.6719 91.85 74.8719 91.25C75.0719 90.6167 75.1719 89.75 75.1719 88.65V67.55C75.1719 66.4167 75.0719 65.55 74.8719 64.95C74.6719 64.3167 74.3219 63.8667 73.8219 63.6C73.3219 63.3333 72.6219 63.2 71.7219 63.2C71.6219 62.8667 71.5552 62.5333 71.5219 62.2C71.4885 61.8667 71.4719 61.5 71.4719 61.1C71.9719 61.1333 72.8052 61.1667 73.9719 61.2C75.1385 61.2 76.3052 61.2 77.4719 61.2C78.8385 61.2 80.2219 61.1833 81.6219 61.15C83.0219 61.1167 84.4219 61.1 85.8219 61.1C88.3552 61.1 90.4219 61.4667 92.0219 62.2C93.6219 62.9333 94.8052 63.9333 95.5719 65.2C96.3385 66.4667 96.7219 67.9 96.7219 69.5C96.7219 71.0333 96.3552 72.4333 95.6219 73.7C94.8885 74.9333 93.8385 75.9833 92.4719 76.85C91.1385 77.6833 89.5385 78.3167 87.6719 78.75L87.9219 78.15C88.8552 79.1167 89.6385 80.0333 90.2719 80.9C90.9385 81.7667 91.6219 82.75 92.3219 83.85C93.0219 84.95 93.8552 86.3333 94.8219 88C95.5219 89.1667 96.1385 90.1 96.6719 90.8C97.2385 91.4667 97.8885 91.9667 98.6219 92.3C99.3552 92.6 100.339 92.7833 101.572 92.85C101.572 93.25 101.555 93.6167 101.522 93.95C101.522 94.2833 101.472 94.6333 101.372 95C100.139 95 98.8219 95.0167 97.4219 95.05C96.0552 95.1167 94.7552 95.25 93.5219 95.45ZM127.452 95.3C126.852 94.3333 126.018 93.1 124.952 91.6C123.885 90.0667 122.668 88.45 121.302 86.75C119.968 85.05 118.602 83.4333 117.202 81.9C115.802 80.3667 114.502 79.0833 113.302 78.05L123.502 67.35C124.735 66.0833 125.352 65.1 125.352 64.4C125.385 63.6667 124.835 63.2667 123.702 63.2C123.602 62.8667 123.535 62.5167 123.502 62.15C123.468 61.7833 123.452 61.4167 123.452 61.05C124.018 61.0833 124.768 61.1167 125.702 61.15C126.635 61.1833 127.602 61.2 128.602 61.2C129.268 61.2 129.902 61.2 130.502 61.2C131.135 61.1667 131.718 61.15 132.252 61.15C132.818 61.1167 133.318 61.0833 133.752 61.05C133.752 61.3833 133.735 61.75 133.702 62.15C133.668 62.55 133.585 62.9 133.452 63.2C132.718 63.2333 132.002 63.3833 131.302 63.65C130.635 63.8833 129.902 64.3 129.102 64.9C128.335 65.5 127.418 66.3833 126.352 67.55L117.602 76.85V75.65C119.002 76.8833 120.585 78.5833 122.352 80.75C124.152 82.8833 126.068 85.2667 128.102 87.9C128.935 88.9667 129.668 89.85 130.302 90.55C130.935 91.25 131.652 91.7833 132.452 92.15C133.285 92.5167 134.352 92.75 135.652 92.85C135.652 93.1167 135.635 93.45 135.602 93.85C135.568 94.25 135.502 94.6333 135.402 95C134.768 95 134.118 95 133.452 95C132.785 95 132.102 95.0167 131.402 95.05C130.702 95.0833 130.018 95.1167 129.352 95.15C128.685 95.1833 128.052 95.2333 127.452 95.3ZM105.652 95.15C105.652 94.6833 105.668 94.2833 105.702 93.95C105.735 93.5833 105.802 93.2667 105.902 93C106.802 92.9333 107.502 92.7833 108.002 92.55C108.502 92.2833 108.852 91.85 109.052 91.25C109.252 90.6167 109.352 89.75 109.352 88.65V67.55C109.352 66.4167 109.252 65.55 109.052 64.95C108.852 64.35 108.502 63.9167 108.002 63.65C107.502 63.3833 106.802 63.2333 105.902 63.2C105.802 62.9333 105.735 62.6167 105.702 62.25C105.668 61.8833 105.652 61.4833 105.652 61.05C106.285 61.0833 106.918 61.1167 107.552 61.15C108.218 61.15 108.902 61.1667 109.602 61.2C110.302 61.2 111.002 61.2 111.702 61.2C112.435 61.2 113.135 61.2 113.802 61.2C114.468 61.1667 115.118 61.15 115.752 61.15C116.418 61.1167 117.085 61.0833 117.752 61.05C117.752 61.4833 117.735 61.8833 117.702 62.25C117.668 62.6167 117.602 62.9333 117.502 63.2C116.635 63.2333 115.935 63.3833 115.402 63.65C114.902 63.9167 114.552 64.35 114.352 64.95C114.152 65.55 114.052 66.4167 114.052 67.55V88.65C114.052 89.75 114.152 90.6167 114.352 91.25C114.552 91.85 114.902 92.2833 115.402 92.55C115.935 92.7833 116.635 92.9333 117.502 93C117.602 93.2667 117.668 93.5833 117.702 93.95C117.735 94.2833 117.752 94.6833 117.752 95.15C116.752 95.0833 115.735 95.0333 114.702 95C113.668 95 112.668 95 111.702 95C110.735 95 109.702 95 108.602 95C107.502 95.0333 106.518 95.0833 105.652 95.15ZM143.238 67.55C143.238 66.4167 143.138 65.55 142.938 64.95C142.738 64.35 142.388 63.9167 141.888 63.65C141.388 63.3833 140.688 63.2333 139.788 63.2C139.688 62.9333 139.622 62.6167 139.588 62.25C139.555 61.8833 139.538 61.4833 139.538 61.05C140.172 61.0833 140.805 61.1167 141.438 61.15C142.105 61.15 142.788 61.1667 143.488 61.2C144.188 61.2 144.888 61.2 145.588 61.2C146.322 61.2 147.022 61.2 147.688 61.2C148.355 61.1667 149.005 61.15 149.638 61.15C150.305 61.1167 150.972 61.0833 151.638 61.05C151.638 61.4833 151.622 61.8833 151.588 62.25C151.555 62.6167 151.488 62.9333 151.388 63.2C150.522 63.2333 149.822 63.3833 149.288 63.65C148.788 63.9167 148.438 64.35 148.238 64.95C148.038 65.55 147.938 66.4167 147.938 67.55V88.65C147.938 89.75 148.038 90.6167 148.238 91.25C148.438 91.85 148.788 92.2833 149.288 92.55C149.822 92.7833 150.522 92.9333 151.388 93C151.488 93.2667 151.555 93.5833 151.588 93.95C151.622 94.2833 151.638 94.6833 151.638 95.15C150.638 95.0833 149.622 95.0333 148.588 95C147.555 95 146.555 95 145.588 95C144.622 95 143.588 95 142.488 95C141.388 95.0333 140.405 95.0833 139.538 95.15C139.538 94.6833 139.555 94.2833 139.588 93.95C139.622 93.5833 139.688 93.2667 139.788 93C140.688 92.9333 141.388 92.7833 141.888 92.55C142.388 92.2833 142.738 91.85 142.938 91.25C143.138 90.6167 143.238 89.75 143.238 88.65V67.55ZM184.114 95.3L160.714 64.75C160.247 64.15 159.797 63.7667 159.364 63.6C158.931 63.4 158.297 63.2667 157.464 63.2C157.364 62.8333 157.297 62.45 157.264 62.05C157.231 61.65 157.214 61.3167 157.214 61.05C157.547 61.0833 157.914 61.1167 158.314 61.15C158.747 61.15 159.181 61.1667 159.614 61.2C160.081 61.2 160.514 61.2 160.914 61.2C161.547 61.2 162.147 61.1833 162.714 61.15C163.314 61.1167 163.831 61.0833 164.264 61.05L184.214 87.5L184.114 95.3ZM157.214 95.15C157.214 94.7167 157.231 94.3333 157.264 94C157.297 93.6333 157.364 93.3 157.464 93C158.364 93 159.064 92.7833 159.564 92.35C160.064 91.9167 160.414 91.1667 160.614 90.1C160.814 89 160.914 87.5167 160.914 85.65V64.5H163.464V85.65C163.464 87.5167 163.564 89 163.764 90.1C163.964 91.1667 164.314 91.9167 164.814 92.35C165.314 92.7833 166.014 93 166.914 93C167.014 93.3 167.081 93.6167 167.114 93.95C167.147 94.2833 167.164 94.6833 167.164 95.15C166.664 95.1167 166.114 95.0833 165.514 95.05C164.947 95.05 164.381 95.0333 163.814 95C163.247 95 162.714 95 162.214 95C161.747 95 161.197 95 160.564 95C159.931 95.0333 159.314 95.05 158.714 95.05C158.147 95.0833 157.647 95.1167 157.214 95.15ZM184.114 95.3L183.714 90.3V70.3C183.714 68.4667 183.614 67.05 183.414 66.05C183.214 65.0167 182.864 64.2833 182.364 63.85C181.864 63.4167 181.164 63.2 180.264 63.2C180.164 62.6333 180.097 62.2167 180.064 61.95C180.031 61.65 180.014 61.35 180.014 61.05C180.514 61.0833 181.031 61.1167 181.564 61.15C182.097 61.15 182.631 61.1667 183.164 61.2C183.731 61.2 184.247 61.2 184.714 61.2C185.414 61.2 186.214 61.1833 187.114 61.15C188.014 61.1167 188.797 61.0833 189.464 61.05C189.464 61.3833 189.447 61.7333 189.414 62.1C189.381 62.4667 189.314 62.8333 189.214 63.2C188.481 63.2 187.897 63.4167 187.464 63.85C187.031 64.2833 186.714 65.0167 186.514 66.05C186.347 67.05 186.264 68.4667 186.264 70.3V95C185.997 95.1 185.664 95.1667 185.264 95.2C184.864 95.2667 184.481 95.3 184.114 95.3ZM209.723 95.45C206.457 95.45 203.573 94.7167 201.073 93.25C198.607 91.7833 196.69 89.7167 195.323 87.05C193.957 84.3833 193.273 81.25 193.273 77.65C193.273 74.85 193.757 72.4 194.723 70.3C195.69 68.1667 196.99 66.4 198.623 65C200.29 63.6 202.157 62.55 204.223 61.85C206.29 61.1167 208.423 60.75 210.623 60.75C213.023 60.75 215.257 60.9667 217.323 61.4C219.39 61.8333 221.157 62.4 222.623 63.1C222.39 64.2667 222.24 65.4833 222.173 66.75C222.107 68.0167 222.073 69.3833 222.073 70.85C221.673 70.9833 221.257 71.1 220.823 71.2C220.423 71.2667 219.957 71.3 219.423 71.3C219.357 68.9667 218.94 67.2 218.173 66C217.407 64.7667 216.407 63.9333 215.173 63.5C213.94 63.0333 212.557 62.8 211.023 62.8C208.19 62.8 205.84 63.45 203.973 64.75C202.14 66.05 200.773 67.75 199.873 69.85C199.007 71.9167 198.573 74.15 198.573 76.55C198.573 79.5833 199.023 82.35 199.923 84.85C200.823 87.3167 202.173 89.3 203.973 90.8C205.773 92.2667 208.023 93 210.723 93C211.723 93 212.607 92.95 213.373 92.85C214.173 92.75 214.973 92.5333 215.773 92.2C216.34 91.9333 216.757 91.5667 217.023 91.1C217.323 90.6 217.473 89.7167 217.473 88.45V85.95C217.473 84.4167 217.373 83.3167 217.173 82.65C217.007 81.95 216.607 81.5 215.973 81.3C215.373 81.1 214.44 80.9833 213.173 80.95C213.073 80.6833 212.99 80.3333 212.923 79.9C212.89 79.4667 212.873 79.05 212.873 78.65C213.507 78.6833 214.423 78.7167 215.623 78.75C216.823 78.7833 217.94 78.8 218.973 78.8C220.007 78.8 221.107 78.8 222.273 78.8C223.44 78.7667 224.29 78.7333 224.823 78.7C224.823 79 224.807 79.3667 224.773 79.8C224.74 80.2333 224.657 80.6167 224.523 80.95C223.857 80.9833 223.357 81.1 223.023 81.3C222.69 81.5 222.457 81.95 222.323 82.65C222.223 83.35 222.173 84.45 222.173 85.95V88.2C222.173 88.9 222.207 89.5333 222.273 90.1C222.373 90.6667 222.557 91.2 222.823 91.7C221.39 92.7333 219.557 93.6167 217.323 94.35C215.09 95.0833 212.557 95.45 209.723 95.45Z" fill="#005C3F"/>
</svg>
